# xmcd
#
# Track frame offsets:
#	150
#	4960
#	23618
#	43412
#	59816
#	78941
#	104850
#	126431
#	149405
#	162544
#	166662
#	174842
#
# Disc length: 2358 seconds
#
# Revision: 0
# Processed by: cddbd v1.5.1PL2 Copyright (c) Steve Scherf et al.
# Submitted via: dBpowerAMP V4.0
#
DISCID=a809340c
DTITLE=Jonathan DuBose - Healin of the Hymns
DYEAR=1900
DGENRE=Spiritual
TTITLE0=If You Miss Me
TTITLE1=Just As I Am
TTITLE2=Oh! Come Let Us Adore Him
TTITLE3=I Will Trust in the Lord
TTITLE4=His Truth is Marching On
TTITLE5=Come Into this House
TTITLE6=Oh, How I Love Jesus
TTITLE7=A Closer Walk with Thee
TTITLE8=Yes, Jesus Loves Me
TTITLE9=Hear Our Prayer
TTITLE10=Mary had a Little Lamb
TTITLE11=Amen
EXTD=
EXTT0=
EXTT1=
EXTT2=
EXTT3=
EXTT4=
EXTT5=
EXTT6=
EXTT7=
EXTT8=
EXTT9=
EXTT10=
EXTT11=
PLAYORDER=
